<svg id="svg" fill="#E7AA19" stroke="#E7AA19" width="35" height="35" version="1.1" viewBox="144 144 512 512" xmlns="http://www.w3.org/2000/svg">
    <g id="IconSvg_bgCarrier" stroke-width="0"></g>
    <g id="IconSvg_tracerCarrier" stroke-linecap="round" stroke-linejoin="round" stroke="#CCCCCC" stroke-width="0">
      <g xmlns="http://www.w3.org/2000/svg">
  <path d="m226.71 515.16c-1.1055 2.7695 0 6.0898 2.2148 7.75 2.2148 1.6602 5.5352 1.6602 8.3047 0l43.738-31.004 43.738 31.004c1.1055 1.1055 2.7695 1.1055 3.875 1.1055 1.6602 0 2.7695-0.55469 3.875-1.1055 2.2148-1.6602 3.3203-4.9844 2.2148-7.75l-16.609-49.828 40.969-28.789c2.2148-1.6602 3.3203-4.9844 2.7695-7.75-1.1055-2.7695-3.3203-4.9844-6.6445-4.9844h-50.383l-17.715-53.148c-1.1055-2.7695-3.3203-4.9844-6.6445-4.9844-3.3203 0-5.5352 1.6602-6.6445 4.9844l-17.715 53.148h-50.383c-2.7695 0-5.5352 2.2148-6.6445 4.9844-1.1055 2.7695 0 6.0898 2.7695 7.75l40.969 28.789z"></path>
  <path d="m607.06 423.8h-50.383l-17.715-53.148c-1.1055-2.7695-3.3203-4.9844-6.6445-4.9844-3.3203 0-5.5352 1.6602-6.6445 4.9844l-17.715 53.148h-49.828c-2.7695 0-5.5352 2.2148-6.6445 4.9844-1.1055 2.7695 0 6.0898 2.7695 7.75l40.969 28.789-16.609 49.828c-1.1055 2.7695 0 6.0898 2.2148 7.75 1.1055 1.1055 2.7695 1.1055 3.875 1.1055 1.6602 0 2.7695-0.55469 3.875-1.1055l43.738-31.004 43.738 31.004c2.2148 1.6602 5.5352 1.6602 8.3047 0 2.2148-1.6602 3.3203-4.9844 2.2148-7.75l-16.609-49.828 40.969-28.789c2.2148-1.6602 3.3203-4.9844 2.7695-7.75-1.1094-2.7695-3.875-4.9844-6.6445-4.9844z"></path>
  <path d="m328.58 313.63 40.969 28.789-16.609 49.828c-1.1055 2.7695 0 6.0898 2.2148 7.75 1.1055 1.1055 2.7695 1.1055 3.875 1.1055 1.6602 0 2.7695-0.55469 3.875-1.1055l43.738-31.004 43.738 31.004c2.2148 1.6602 5.5352 1.6602 8.3047 0 2.2148-1.6602 3.3203-4.9844 2.2148-7.75l-16.609-49.828 40.969-28.789c2.2148-1.6602 3.3203-4.9844 2.7695-7.75-1.1055-2.7695-3.3203-4.9844-6.6445-4.9844h-50.383l-17.715-53.148c-1.1055-2.7695-3.3203-4.9844-6.6445-4.9844-3.3203 0-5.5352 1.6602-6.6445 4.9844l-17.715 53.148h-50.383c-2.7695 0-5.5352 2.2148-6.6445 4.9844-0.55078 3.3203 0.55859 6.0859 3.3242 7.75z"></path>
 </g>

      </g>
     <g id="IconSvg_iconCarrier">
      <g xmlns="http://www.w3.org/2000/svg">
  <path d="m226.71 515.16c-1.1055 2.7695 0 6.0898 2.2148 7.75 2.2148 1.6602 5.5352 1.6602 8.3047 0l43.738-31.004 43.738 31.004c1.1055 1.1055 2.7695 1.1055 3.875 1.1055 1.6602 0 2.7695-0.55469 3.875-1.1055 2.2148-1.6602 3.3203-4.9844 2.2148-7.75l-16.609-49.828 40.969-28.789c2.2148-1.6602 3.3203-4.9844 2.7695-7.75-1.1055-2.7695-3.3203-4.9844-6.6445-4.9844h-50.383l-17.715-53.148c-1.1055-2.7695-3.3203-4.9844-6.6445-4.9844-3.3203 0-5.5352 1.6602-6.6445 4.9844l-17.715 53.148h-50.383c-2.7695 0-5.5352 2.2148-6.6445 4.9844-1.1055 2.7695 0 6.0898 2.7695 7.75l40.969 28.789z"></path>
  <path d="m607.06 423.8h-50.383l-17.715-53.148c-1.1055-2.7695-3.3203-4.9844-6.6445-4.9844-3.3203 0-5.5352 1.6602-6.6445 4.9844l-17.715 53.148h-49.828c-2.7695 0-5.5352 2.2148-6.6445 4.9844-1.1055 2.7695 0 6.0898 2.7695 7.75l40.969 28.789-16.609 49.828c-1.1055 2.7695 0 6.0898 2.2148 7.75 1.1055 1.1055 2.7695 1.1055 3.875 1.1055 1.6602 0 2.7695-0.55469 3.875-1.1055l43.738-31.004 43.738 31.004c2.2148 1.6602 5.5352 1.6602 8.3047 0 2.2148-1.6602 3.3203-4.9844 2.2148-7.75l-16.609-49.828 40.969-28.789c2.2148-1.6602 3.3203-4.9844 2.7695-7.75-1.1094-2.7695-3.875-4.9844-6.6445-4.9844z"></path>
  <path d="m328.58 313.63 40.969 28.789-16.609 49.828c-1.1055 2.7695 0 6.0898 2.2148 7.75 1.1055 1.1055 2.7695 1.1055 3.875 1.1055 1.6602 0 2.7695-0.55469 3.875-1.1055l43.738-31.004 43.738 31.004c2.2148 1.6602 5.5352 1.6602 8.3047 0 2.2148-1.6602 3.3203-4.9844 2.2148-7.75l-16.609-49.828 40.969-28.789c2.2148-1.6602 3.3203-4.9844 2.7695-7.75-1.1055-2.7695-3.3203-4.9844-6.6445-4.9844h-50.383l-17.715-53.148c-1.1055-2.7695-3.3203-4.9844-6.6445-4.9844-3.3203 0-5.5352 1.6602-6.6445 4.9844l-17.715 53.148h-50.383c-2.7695 0-5.5352 2.2148-6.6445 4.9844-0.55078 3.3203 0.55859 6.0859 3.3242 7.75z"></path>
 </g>

      </g>
      </svg>