<svg width="13" height="7" viewBox="0 0 13 7" fill="none" xmlns="http://www.w3.org/2000/svg">
<path d="M12.5682 0.271148C12.483 0.185231 12.3816 0.117036 12.2699 0.0704978C12.1582 0.0239598 12.0384 0 11.9174 0C11.7964 0 11.6766 0.0239598 11.5649 0.0704978C11.4532 0.117036 11.3518 0.185231 11.2666 0.271148L7.06823 4.46948C6.98301 4.5554 6.88163 4.62359 6.76992 4.67013C6.65822 4.71667 6.5384 4.74063 6.41739 4.74063C6.29638 4.74063 6.17657 4.71667 6.06486 4.67013C5.95316 4.62359 5.85178 4.5554 5.76656 4.46948L1.56823 0.271148C1.48301 0.185231 1.38163 0.117036 1.26992 0.0704978C1.15822 0.0239598 1.0384 0 0.917393 0C0.796382 0 0.676569 0.0239598 0.564864 0.0704978C0.45316 0.117036 0.351776 0.185231 0.26656 0.271148C0.0958297 0.442897 0 0.675228 0 0.917398C0 1.15957 0.0958297 1.3919 0.26656 1.56365L4.47406 5.77115C4.98969 6.28613 5.68864 6.57539 6.41739 6.57539C7.14615 6.57539 7.8451 6.28613 8.36073 5.77115L12.5682 1.56365C12.739 1.3919 12.8348 1.15957 12.8348 0.917398C12.8348 0.675228 12.739 0.442897 12.5682 0.271148Z" fill="white"/>
</svg>
