<svg width="690" height="345" viewBox="0 0 690 345" fill="none" xmlns="http://www.w3.org/2000/svg">
<path d="M676.649 345C683.89 345 689.786 339.125 689.511 331.889C686.216 245.153 650.315 162.651 588.712 101.048C524.012 36.3481 436.26 6.90804e-06 344.76 0C253.261 -6.90803e-06 165.508 36.3481 100.808 101.048C39.2053 162.651 3.30483 245.153 0.00920562 331.889C-0.265733 339.125 5.63043 345 12.8717 345C20.1129 345 25.9549 339.125 26.2525 331.89C29.5334 252.111 62.6657 176.276 119.351 119.59C179.133 59.8082 260.215 26.2228 344.76 26.2228C429.305 26.2228 510.387 59.8082 570.17 119.59C626.855 176.276 659.987 252.111 663.268 331.89C663.566 339.125 669.408 345 676.649 345Z" fill="#303030"/>
</svg>
