<?xml version="1.0" encoding="UTF-8"?>
<svg xmlns="http://www.w3.org/2000/svg" xmlns:xlink="http://www.w3.org/1999/xlink" width="23px" height="23px" viewBox="0 0 23 23" version="1.1">
<g id="surface1">
<path style=" stroke:none;fill-rule:nonzero;fill:rgb(94.117647%,94.117647%,94.117647%);fill-opacity:1;" d="M 11.5 23 C 17.851562 23 23 17.851562 23 11.5 C 23 5.148438 17.851562 0 11.5 0 C 5.148438 0 0 5.148438 0 11.5 C 0 17.851562 5.148438 23 11.5 23 Z M 11.5 23 "/>
<path style=" stroke:none;fill-rule:nonzero;fill:rgb(84.705883%,0%,15.294118%);fill-opacity:1;" d="M 22.902344 10 L 13 10 L 13 0.0976562 C 12.507812 0.0351562 12.007812 0 11.5 0 C 10.992188 0 10.492188 0.0351562 10 0.0976562 L 10 10 L 0.0976562 10 C 0.0351562 10.492188 0 10.992188 0 11.5 C 0 12.007812 0.0351562 12.507812 0.0976562 13 L 10 13 L 10 22.902344 C 10.492188 22.964844 10.992188 23 11.5 23 C 12.007812 23 12.507812 22.964844 13 22.902344 L 13 13 L 22.902344 13 C 22.964844 12.507812 23 12.007812 23 11.5 C 23 10.992188 22.964844 10.492188 22.902344 10 Z M 22.902344 10 "/>
<path style=" stroke:none;fill-rule:nonzero;fill:rgb(84.705883%,0%,15.294118%);fill-opacity:1;" d="M 7 5.5 L 7 4 L 5.5 4 L 5.5 5.5 L 4 5.5 L 4 7 L 5.5 7 L 5.5 8.5 L 7 8.5 L 7 7 L 8.5 7 L 8.5 5.5 Z M 7 5.5 "/>
<path style=" stroke:none;fill-rule:nonzero;fill:rgb(84.705883%,0%,15.294118%);fill-opacity:1;" d="M 17.5 5.5 L 17.5 4 L 16 4 L 16 5.5 L 14.5 5.5 L 14.5 7 L 16 7 L 16 8.5 L 17.5 8.5 L 17.5 7 L 19 7 L 19 5.5 Z M 17.5 5.5 "/>
<path style=" stroke:none;fill-rule:nonzero;fill:rgb(84.705883%,0%,15.294118%);fill-opacity:1;" d="M 7 16 L 7 14.5 L 5.5 14.5 L 5.5 16 L 4 16 L 4 17.5 L 5.5 17.5 L 5.5 19 L 7 19 L 7 17.5 L 8.5 17.5 L 8.5 16 Z M 7 16 "/>
<path style=" stroke:none;fill-rule:nonzero;fill:rgb(84.705883%,0%,15.294118%);fill-opacity:1;" d="M 17.5 16 L 17.5 14.5 L 16 14.5 L 16 16 L 14.5 16 L 14.5 17.5 L 16 17.5 L 16 19 L 17.5 19 L 17.5 17.5 L 19 17.5 L 19 16 Z M 17.5 16 "/>
</g>
</svg>
