<?xml version="1.0" encoding="UTF-8"?>
<svg xmlns="http://www.w3.org/2000/svg" xmlns:xlink="http://www.w3.org/1999/xlink" width="23px" height="23px" viewBox="0 0 23 23" version="1.1">
<g id="surface1">
<path style=" stroke:none;fill-rule:nonzero;fill:rgb(94.117647%,94.117647%,94.117647%);fill-opacity:1;" d="M 11.5 23 C 17.851562 23 23 17.851562 23 11.5 C 23 5.148438 17.851562 0 11.5 0 C 5.148438 0 0 5.148438 0 11.5 C 0 17.851562 5.148438 23 11.5 23 Z M 11.5 23 "/>
<path style=" stroke:none;fill-rule:nonzero;fill:rgb(0%,32.156864%,70.588237%);fill-opacity:1;" d="M 22.285156 7.5 L 0.714844 7.5 C 0.253906 8.746094 0 10.09375 0 11.5 C 0 12.90625 0.253906 14.253906 0.714844 15.5 L 22.285156 15.5 C 22.746094 14.253906 23 12.90625 23 11.5 C 23 10.09375 22.746094 8.746094 22.285156 7.5 Z M 22.285156 7.5 "/>
<path style=" stroke:none;fill-rule:nonzero;fill:rgb(84.705883%,0%,15.294118%);fill-opacity:1;" d="M 11.5 0 C 8.015625 0 4.890625 1.550781 2.78125 4 L 20.21875 4 C 18.109375 1.550781 14.984375 0 11.5 0 Z M 11.5 0 "/>
<path style=" stroke:none;fill-rule:nonzero;fill:rgb(84.705883%,0%,15.294118%);fill-opacity:1;" d="M 20.21875 19 L 2.78125 19 C 4.890625 21.449219 8.015625 23 11.5 23 C 14.984375 23 18.109375 21.449219 20.21875 19 Z M 20.21875 19 "/>
</g>
</svg>
