<svg width="158" height="214" viewBox="0 0 158 214" fill="none" xmlns="http://www.w3.org/2000/svg">
<path d="M81.9001 213.6C47.7001 213.6 20.4001 201.5 9.84073e-05 177.3L31.8001 147C46.8001 163.8 63.7001 172.2 82.5001 172.2C91.3001 172.2 98.4001 169.9 103.8 165.3C109.4 160.5 112.2 154.1 112.2 146.1C112.2 137.5 108.6 130.9 101.4 126.3C94.2001 121.7 84.1001 119.4 71.1001 119.4H51.9001L44.7001 90L94.8001 39.6H12.3001V-1.43051e-05H154.2V34.8L101.1 85.5C138.7 91.9 157.5 111.7 157.5 144.9C157.5 165.1 150.6 181.6 136.8 194.4C123.2 207.2 104.9 213.6 81.9001 213.6Z" fill="url(#paint0_linear_113_326)" fill-opacity="0.37"/>
<defs>
<linearGradient id="paint0_linear_113_326" x1="81.7642" y1="-52" x2="81.7642" y2="300" gradientUnits="userSpaceOnUse">
<stop stop-color="#3D4F3B"/>
<stop offset="1" stop-color="#3D4F3B" stop-opacity="0"/>
</linearGradient>
</defs>
</svg>
