<svg width="735" height="145" viewBox="0 0 735 145" fill="none" xmlns="http://www.w3.org/2000/svg">
<path d="M30.8001 30.1999V54.5999H67.8001C83.4001 54.5999 95.4667 58.5332 104 66.3999C112.667 74.1332 117 84.6666 117 97.9999C117 112.133 112.4 123.067 103.2 130.8C94.0001 138.533 81.2001 142.4 64.8001 142.4H7.45058e-05V2.39989H107.4V30.1999H30.8001ZM64.6001 80.1999H30.8001V114.6H64.8001C79.0667 114.6 86.2001 108.667 86.2001 96.7999C86.2001 85.7332 79.0001 80.1999 64.6001 80.1999ZM263.583 123.8C249.45 137.8 231.716 144.8 210.383 144.8C189.05 144.8 171.316 137.8 157.183 123.8C143.183 109.8 136.183 92.6666 136.183 72.3999C136.183 52.2666 143.25 35.1999 157.383 21.1999C171.65 7.06657 189.45 -0.000100136 210.783 -0.000100136C232.116 -0.000100136 249.783 6.9999 263.783 20.9999C277.916 34.9999 284.983 52.1332 284.983 72.3999C284.983 92.5332 277.85 109.667 263.583 123.8ZM180.383 103.6C188.383 112.133 198.516 116.4 210.783 116.4C223.05 116.4 233.116 112.2 240.983 103.8C248.85 95.2666 252.783 84.7999 252.783 72.3999C252.783 60.1332 248.783 49.7332 240.783 41.1999C232.783 32.6666 222.65 28.3999 210.383 28.3999C198.116 28.3999 188.05 32.6666 180.183 41.1999C172.316 49.5999 168.383 59.9999 168.383 72.3999C168.383 84.6666 172.383 95.0666 180.383 103.6ZM312.305 142.4V2.39989H343.105V57.7999H399.905V2.39989H430.705V142.4H399.905V86.1999H343.105V142.4H312.305ZM523.458 76.3999L557.258 2.39989H590.658L536.858 110.6C530.858 122.6 524.191 131.267 516.858 136.6C509.658 141.933 501.058 144.6 491.058 144.6C480.525 144.6 470.458 141.867 460.858 136.4L472.858 113.8C477.925 116.867 483.458 118.4 489.458 118.4C496.391 118.4 502.258 114.667 507.058 107.2L451.058 2.39989H485.458L523.458 76.3999ZM676.733 144.8C656.2 144.8 639.066 137.867 625.333 124C611.733 110 604.933 92.7999 604.933 72.3999C604.933 52.1332 611.8 34.9999 625.533 20.9999C639.266 6.9999 656.733 -0.000100136 677.933 -0.000100136C690.066 -0.000100136 700.266 1.9999 708.533 5.99989C716.8 9.86656 724.666 15.4666 732.133 22.7999L713.733 43.9999C707.733 38.5332 702.066 34.5999 696.733 32.1999C691.533 29.6666 685.2 28.3999 677.733 28.3999C666 28.3999 656.266 32.6666 648.533 41.1999C640.933 49.5999 637.133 59.9999 637.133 72.3999C637.133 84.6666 640.933 95.0666 648.533 103.6C656.266 112.133 666 116.4 677.733 116.4C685.2 116.4 691.666 115.067 697.133 112.4C702.6 109.733 708.4 105.6 714.533 99.9999L734.133 121C726.533 129.133 718.266 135.133 709.333 139C700.533 142.867 689.666 144.8 676.733 144.8Z" fill="url(#paint0_linear_113_42)"/>
<defs>
<linearGradient id="paint0_linear_113_42" x1="368.595" y1="-25.6001" x2="362.595" y2="142.4" gradientUnits="userSpaceOnUse">
<stop stop-color="#4B5951"/>
<stop offset="0.989036" stop-color="#3D5246" stop-opacity="0.1"/>
</linearGradient>
</defs>
</svg>
